<svg width="28" height="28" viewBox="0 0 28 28" fill="none" xmlns="http://www.w3.org/2000/svg">
<circle cx="14" cy="14" r="14" fill="#2260FF"/>
<path d="M14.8014 21.2719L20.2861 18.1783M11.7962 9.52912L17.7399 19.6144M14.2695 7.73329C14.3596 7.88867 14.3011 8.09025 14.1387 8.18354L9.21303 11.013C9.05062 11.1063 8.84587 11.056 8.75571 10.9006C6.72297 7.39757 8.04557 6.05704 9.22709 5.37833C10.4086 4.69963 12.2334 4.22443 14.2695 7.73329ZM14.4327 8.01462L20.2021 17.9571C20.2724 18.0781 20.3065 18.2168 20.299 18.3564C20.2039 20.1185 19.9608 21.6625 19.7996 22.5394C19.723 22.9558 19.3015 23.2001 18.8999 23.0606C18.0519 22.7659 16.5778 22.2092 14.9878 21.4074C14.8624 21.3442 14.7586 21.2454 14.6883 21.1242L8.91896 11.1819L14.4327 8.01462Z" stroke="#CAD6FF" stroke-linecap="round"/>
</svg>
